<svg width="24" height="25" viewBox="0 0 24 25" fill="none" xmlns="http://www.w3.org/2000/svg">
<g id="mail_24dp_1F1F1F_FILL0_wght400_GRAD0_opsz24 1">
<path id="Vector" d="M6.5 18.6891C6.12188 18.6891 5.79818 18.5545 5.52891 18.2852C5.25964 18.0159 5.125 17.6922 5.125 17.3141V9.06409C5.125 8.68596 5.25964 8.36226 5.52891 8.09299C5.79818 7.82372 6.12188 7.68909 6.5 7.68909H17.5C17.8781 7.68909 18.2018 7.82372 18.4711 8.09299C18.7404 8.36226 18.875 8.68596 18.875 9.06409V17.3141C18.875 17.6922 18.7404 18.0159 18.4711 18.2852C18.2018 18.5545 17.8781 18.6891 17.5 18.6891H6.5ZM12 13.8766L6.5 10.4391V17.3141H17.5V10.4391L12 13.8766ZM12 12.5016L17.5 9.06409H6.5L12 12.5016ZM6.5 10.4391V9.06409V17.3141V10.4391Z" fill="#2E1B46"/>
</g>
</svg>
