<svg width="24" height="25" viewBox="0 0 24 25" fill="none" xmlns="http://www.w3.org/2000/svg">
<g id="call_24dp_1F1F1F_FILL0_wght400_GRAD0_opsz24 1">
<path id="Vector" d="M16.3 18.6891C14.9111 18.6891 13.5389 18.3863 12.1833 17.7808C10.8278 17.1752 9.59444 16.3169 8.48333 15.2058C7.37222 14.0946 6.51389 12.8613 5.90833 11.5058C5.30278 10.1502 5 8.77798 5 7.38909C5 7.18909 5.06667 7.02242 5.2 6.88909C5.33333 6.75575 5.5 6.68909 5.7 6.68909H8.4C8.55556 6.68909 8.69444 6.74186 8.81667 6.84742C8.93889 6.95298 9.01111 7.07798 9.03333 7.22242L9.46667 9.55575C9.48889 9.73353 9.48333 9.88353 9.45 10.0058C9.41667 10.128 9.35556 10.2335 9.26667 10.3224L7.65 11.9558C7.87222 12.3669 8.13611 12.7641 8.44167 13.1474C8.74722 13.5308 9.08333 13.9002 9.45 14.2558C9.79444 14.6002 10.1556 14.9196 10.5333 15.2141C10.9111 15.5085 11.3111 15.778 11.7333 16.0224L13.3 14.4558C13.4 14.3558 13.5306 14.2808 13.6917 14.2308C13.8528 14.1808 14.0111 14.1669 14.1667 14.1891L16.4667 14.6558C16.6222 14.7002 16.75 14.7808 16.85 14.8974C16.95 15.0141 17 15.1446 17 15.2891V17.9891C17 18.1891 16.9333 18.3558 16.8 18.4891C16.6667 18.6224 16.5 18.6891 16.3 18.6891ZM7.01667 10.6891L8.11667 9.58909L7.83333 8.02242H6.35C6.40556 8.47798 6.48333 8.92798 6.58333 9.37242C6.68333 9.81686 6.82778 10.2558 7.01667 10.6891ZM12.9833 16.6558C13.4167 16.8446 13.8583 16.9946 14.3083 17.1058C14.7583 17.2169 15.2111 17.2891 15.6667 17.3224V15.8558L14.1 15.5391L12.9833 16.6558Z" fill="#2E1B46"/>
</g>
</svg>
